<svg width="28" height="28" viewBox="0 0 28 28" fill="none" xmlns="http://www.w3.org/2000/svg">
<g clip-path="url(#clip0_15878_5700)">
<path d="M3.5 0C2.57174 0 1.6815 0.368749 1.02513 1.02513C0.368749 1.6815 0 2.57174 0 3.5L0 24.5C0 25.4283 0.368749 26.3185 1.02513 26.9749C1.6815 27.6313 2.57174 28 3.5 28H24.5C25.4283 28 26.3185 27.6313 26.9749 26.9749C27.6313 26.3185 28 25.4283 28 24.5V3.5C28 2.57174 27.6313 1.6815 26.9749 1.02513C26.3185 0.368749 25.4283 0 24.5 0L3.5 0ZM9.3695 8.1305L14 12.7628L18.6305 8.1305C18.7119 8.04915 18.8084 7.98461 18.9147 7.94058C19.021 7.89656 19.1349 7.87389 19.25 7.87389C19.3651 7.87389 19.479 7.89656 19.5853 7.94058C19.6916 7.98461 19.7881 8.04915 19.8695 8.1305C19.9509 8.21185 20.0154 8.30843 20.0594 8.41473C20.1034 8.52102 20.1261 8.63495 20.1261 8.75C20.1261 8.86505 20.1034 8.97898 20.0594 9.08527C20.0154 9.19157 19.9509 9.28815 19.8695 9.3695L15.2372 14L19.8695 18.6305C19.9509 18.7119 20.0154 18.8084 20.0594 18.9147C20.1034 19.021 20.1261 19.1349 20.1261 19.25C20.1261 19.3651 20.1034 19.479 20.0594 19.5853C20.0154 19.6916 19.9509 19.7881 19.8695 19.8695C19.7881 19.9509 19.6916 20.0154 19.5853 20.0594C19.479 20.1034 19.3651 20.1261 19.25 20.1261C19.1349 20.1261 19.021 20.1034 18.9147 20.0594C18.8084 20.0154 18.7119 19.9509 18.6305 19.8695L14 15.2372L9.3695 19.8695C9.28815 19.9509 9.19157 20.0154 9.08527 20.0594C8.97898 20.1034 8.86505 20.1261 8.75 20.1261C8.63495 20.1261 8.52102 20.1034 8.41473 20.0594C8.30843 20.0154 8.21185 19.9509 8.1305 19.8695C8.04915 19.7881 7.98461 19.6916 7.94058 19.5853C7.89656 19.479 7.87389 19.3651 7.87389 19.25C7.87389 19.1349 7.89656 19.021 7.94058 18.9147C7.98461 18.8084 8.04915 18.7119 8.1305 18.6305L12.7628 14L8.1305 9.3695C7.9662 9.2052 7.87389 8.98236 7.87389 8.75C7.87389 8.51764 7.9662 8.2948 8.1305 8.1305C8.2948 7.9662 8.51764 7.87389 8.75 7.87389C8.98236 7.87389 9.2052 7.9662 9.3695 8.1305Z" fill="#333F48"/>
</g>
<defs>
<clipPath id="clip0_15878_5700">
<rect width="28" height="28" fill="white"/>
</clipPath>
</defs>
</svg>
