<svg width="28" height="28" viewBox="0 0 28 28" fill="none" xmlns="http://www.w3.org/2000/svg">
<g clip-path="url(#clip0_15878_5695)">
<path d="M3.5 0C2.57174 0 1.6815 0.368749 1.02513 1.02513C0.368749 1.6815 0 2.57174 0 3.5L0 24.5C0 25.4283 0.368749 26.3185 1.02513 26.9749C1.6815 27.6313 2.57174 28 3.5 28H24.5C25.4283 28 26.3185 27.6313 26.9749 26.9749C27.6313 26.3185 28 25.4283 28 24.5V3.5C28 2.57174 27.6313 1.6815 26.9749 1.02513C26.3185 0.368749 25.4283 0 24.5 0L3.5 0ZM21.0525 8.6975C21.2956 8.94032 21.4337 9.26876 21.4373 9.61232C21.4409 9.95588 21.3097 10.2871 21.0718 10.535L14.0857 19.2675C13.9657 19.3968 13.8208 19.5006 13.6597 19.5726C13.4986 19.6447 13.3246 19.6835 13.1482 19.6868C12.9718 19.69 12.7965 19.6577 12.6328 19.5917C12.4692 19.5256 12.3205 19.4273 12.1957 19.3025L7.567 14.672C7.43805 14.5518 7.33462 14.4069 7.26288 14.2459C7.19115 14.0849 7.15257 13.9111 7.14946 13.7349C7.14636 13.5587 7.17877 13.3836 7.24479 13.2202C7.3108 13.0568 7.40905 12.9083 7.53368 12.7837C7.65832 12.659 7.80677 12.5608 7.9702 12.4948C8.13363 12.4288 8.30868 12.3964 8.48491 12.3995C8.66114 12.4026 8.83494 12.4411 8.99594 12.5129C9.15694 12.5846 9.30184 12.688 9.422 12.817L13.0865 16.4797L19.1642 8.736C19.2841 8.60645 19.4288 8.50239 19.5898 8.43004C19.7507 8.3577 19.9246 8.31857 20.1011 8.31497C20.2775 8.31138 20.4529 8.3434 20.6166 8.40913C20.7804 8.47485 20.9292 8.57293 21.0543 8.6975H21.0525Z" fill="#579D42"/>
</g>
<defs>
<clipPath id="clip0_15878_5695">
<rect width="28" height="28" fill="white"/>
</clipPath>
</defs>
</svg>
